<svg xmlns="http://www.w3.org/2000/svg" viewBox="0 0 256.16 257.17">
    <title>benchmark</title>
    <path class="cls-2"
          d="M295,549c-6.51-5.76-14.5-9.16-21.88-13.49-26.24-15.36-52.65-30.44-79-45.57-3.72-2.13-5.22-5.09-5.22-9.39,0-37.67.25-75.33-.38-113-.14-8.65,2.79-13.35,10-17.44,31.76-18.1,63.29-36.6,94.85-55,3.68-2.15,6.89-2.07,10.6.08q50,29,100.13,57.77c4,2.29,4.22,5.46,4.35,9.59.83,26.65.15,53.31.44,80,.13,11.83-.11,23.67.13,35.5.12,6-2.18,9.89-7.4,12.9q-47.29,27.25-94.37,54.88c-1.5.88-3.51,1.23-4.2,3.22Zm-58-89c-3.14,1.88-6.3,3.72-9.4,5.65-6.35,4-6.28,8.11.24,11.89,22.31,12.91,44.67,25.75,66.95,38.73,2.91,1.69,5.3,1.9,8.3.14,22.24-13,44.57-25.93,66.86-38.88,5.73-3.33,5.72-8.53.15-12-3.32-2.06-7.31-3.14-9.8-6.48,3-1.4,6-2.77,9-4.2,3.54-1.7,4.85-4.46,4.83-8.43q-.16-42.65,0-85.29a5.79,5.79,0,0,0-3.48-5.85q-34.28-18.81-68.44-37.85c-1.38-.76-2.66-2.35-4.32-.47a6.5,6.5,0,0,0-3.78,1.05q-34,18.74-68,37.42c-2.17,1.19-3.11,2.55-3.1,5.06q.1,43.15,0,86.29a7.86,7.86,0,0,0,4.65,7.58C230.89,456,234.33,457.32,237,460Z"
          transform="translate(-170.92 -291.92)"/>
    <path class="cls-3"
          d="M297.85,317c1.66-1.88,2.94-.29,4.32.47q34.2,19,68.44,37.85a5.79,5.79,0,0,1,3.48,5.85q-.16,42.64,0,85.29c0,4-1.29,6.73-4.83,8.43-3,1.43-6,2.8-9,4.2L359,459c-1.88-1.05-3.76-2.09-5.63-3.15L299,424.9l0-6.95c5.31-.09,10.63-.07,15.94-.27,11.33-.43,20-7.4,21.74-17.6a20.49,20.49,0,0,0-2.37-13.46c-2.33-4.4-6.36-6.62-11.61-8.28,5.53-2.2,9.38-5.09,11.25-10.15,4.73-12.83-4.16-25.18-19-26-5.3-.31-10.63-.18-16-.25,0-5.8.1-11.6-.09-17.39C298.84,322,300,319.2,297.85,317Z"
          transform="translate(-170.92 -291.92)"/>
    <path class="cls-4"
          d="M299,418c0,2.32,0,4.64,0,7-8.44,3.13-15.73,8.4-23.43,12.88C263,445.09,250.09,451.9,238,460c-.32,0-.65,0-1,0-2.64-2.64-6.08-4-9.32-5.61a7.86,7.86,0,0,1-4.65-7.58q0-43.14,0-86.29c0-2.51.93-3.87,3.1-5.06q34.05-18.63,68-37.42a6.5,6.5,0,0,1,3.78-1.05c2.16,2.25,1,5,1.08,7.56.19,5.79.08,11.59.09,17.39-10,.05-20,.26-29.95.09-3.56-.07-4.93.66-4.9,4.61q.3,33.21,0,66.42c0,3.75,1.13,4.87,4.85,4.81C279,417.66,289,417.88,299,418Z"
          transform="translate(-170.92 -291.92)"/>
    <path class="cls-5"
          d="M237,460c.33,0,.66,0,1,0,7.3,3.85,14.64,7.63,21.89,11.57,12.1,6.56,24.13,13.27,36.23,19.83,2.16,1.17,4.32.83,6.59-.41,17.61-9.64,35.29-19.17,52.94-28.76,1.38-.75,3.32-1,3.39-3.17l1.28,0c2.49,3.34,6.48,4.42,9.8,6.48,5.57,3.44,5.58,8.64-.15,12-22.29,12.95-44.62,25.84-66.86,38.88-3,1.76-5.39,1.55-8.3-.14-22.28-13-44.64-25.82-66.95-38.73-6.52-3.78-6.59-7.92-.24-11.89C230.67,463.68,233.83,461.84,237,460Z"
          transform="translate(-170.92 -291.92)"/>
    <path class="cls-1"
          d="M299,418c-10-.07-20-.29-29.95-.12-3.72.06-4.88-1.06-4.85-4.81q.22-33.21,0-66.42c0-4,1.34-4.68,4.9-4.61,10,.17,20,0,29.95-.09,5.32.07,10.65-.06,16,.25,14.81.86,23.7,13.21,19,26-1.87,5.06-5.72,7.95-11.25,10.15,5.25,1.66,9.28,3.88,11.61,8.28a20.49,20.49,0,0,1,2.37,13.46c-1.78,10.2-10.41,17.17-21.74,17.6C309.62,417.88,304.3,417.86,299,418ZM299,371c1.8.08,3.6.18,5.4.22,4.14.11,6.07-2.22,6.07-6.07s-1.94-6.19-6-6.2c-1.81,0-3.61.1-5.41.15l-7.41-.15c-1.35,0-2.4,0-2.79,1.89-1.76,8.25-.05,10.51,8.21,10.35C297.69,371.19,298.35,371.08,299,371Zm0,16.13c-2.47,0-4.94-.1-7.41-.13-1.36,0-2.39,0-2.79,1.89-1.88,8.77,0,11.14,8.77,10.77a7.22,7.22,0,0,0,1.43-.33c2.14.08,4.27.28,6.4.22,5.07-.16,6.75-1.87,6.67-6.47-.09-4.39-2.56-6.13-6.65-6.09C303.31,387,301.17,387.09,299,387.14Z"
          transform="translate(-170.92 -291.92)"/>
    <path class="cls-6"
          d="M359,459c-.07,2.19-2,2.42-3.39,3.17-17.65,9.59-35.33,19.12-52.94,28.76-2.27,1.24-4.43,1.58-6.59.41-12.1-6.56-24.13-13.27-36.23-19.83-7.25-3.94-14.59-7.72-21.89-11.57,12.14-8.05,25-14.86,37.57-22.16,7.7-4.48,15-9.75,23.43-12.88l54.41,30.95C355.23,456.92,357.11,458,359,459Z"
          transform="translate(-170.92 -291.92)"/>
    <path class="cls-3"
          d="M299,387.14c2.14-.05,4.28-.12,6.42-.14,4.09,0,6.56,1.7,6.65,6.09.08,4.6-1.6,6.31-6.67,6.47-2.13.06-4.26-.14-6.4-.22Z"
          transform="translate(-170.92 -291.92)"/>
    <path class="cls-4"
          d="M299,387.14v12.2a7.22,7.22,0,0,1-1.43.33c-8.8.37-10.65-2-8.77-10.77.4-1.87,1.43-1.92,2.79-1.89C294.09,387,296.56,387.1,299,387.14Z"
          transform="translate(-170.92 -291.92)"/>
    <path class="cls-3"
          d="M299,359.11c1.8-.05,3.6-.16,5.41-.15,4.09,0,6,2.37,6,6.2s-1.93,6.18-6.07,6.07c-1.8,0-3.6-.14-5.4-.22Z"
          transform="translate(-170.92 -291.92)"/>
    <path class="cls-4"
          d="M299,359.11l0,11.9c-.65.07-1.31.18-2,.19-8.26.16-10-2.1-8.21-10.35.39-1.87,1.44-1.92,2.79-1.89Z"
          transform="translate(-170.92 -291.92)"/>
</svg>
