<?xml version="1.0" encoding="utf-8"?>
<svg version="1.1" xmlns="http://www.w3.org/2000/svg" xmlns:xlink="http://www.w3.org/1999/xlink" x="0px" y="0px"
	 viewBox="0 0 297.6 339" style="enable-background:new 0 0 297.6 339;" xml:space="preserve">
<style type="text/css">
	.st0{fill:#FFFFFF;}
</style>
<g>
	<path class="st0" d="M148.8,146.8c12.5,0,22.7,10.2,22.7,22.7c0,12.5-10.2,22.7-22.7,22.7c-12.5,0-22.7-10.2-22.7-22.7
		C126.2,157,136.3,146.8,148.8,146.8 M148.8,133.3c-20,0-36.2,16.2-36.2,36.2s16.2,36.2,36.2,36.2s36.2-16.2,36.2-36.2
		S168.8,133.3,148.8,133.3L148.8,133.3z"/>
	<path class="st0" d="M148.8,239c12.5,0,22.7,10.2,22.7,22.7c0,12.5-10.2,22.7-22.7,22.7c-12.5,0-22.7-10.2-22.7-22.7
		C126.2,249.2,136.3,239,148.8,239 M148.8,225.5c-20,0-36.2,16.2-36.2,36.2s16.2,36.2,36.2,36.2s36.2-16.2,36.2-36.2
		S168.8,225.5,148.8,225.5L148.8,225.5z"/>
	<path class="st0" d="M228.7,193.7c12.5,0,22.7,10.2,22.7,22.7S241.2,239,228.7,239S206,228.9,206,216.4S216.2,193.7,228.7,193.7
		 M228.7,180.1c-20,0-36.2,16.2-36.2,36.2s16.2,36.2,36.2,36.2s36.2-16.2,36.2-36.2S248.7,180.1,228.7,180.1L228.7,180.1z"/>
	<path class="st0" d="M228.7,101.2c12.5,0,22.7,10.2,22.7,22.7c0,12.5-10.2,22.7-22.7,22.7S206,136.3,206,123.8
		S216.2,101.2,228.7,101.2 M228.7,87.6c-20,0-36.2,16.2-36.2,36.2s16.2,36.2,36.2,36.2s36.2-16.2,36.2-36.2S248.7,87.6,228.7,87.6
		L228.7,87.6z"/>
	<path class="st0" d="M69,101.2c12.5,0,22.7,10.2,22.7,22.7c0,12.5-10.2,22.7-22.7,22.7s-22.7-10.2-22.7-22.7S56.5,101.2,69,101.2
		 M69,87.6c-20,0-36.2,16.2-36.2,36.2S49,160.1,69,160.1s36.2-16.2,36.2-36.2S89,87.6,69,87.6L69,87.6z"/>
	<path class="st0" d="M69,193.7c12.5,0,22.7,10.2,22.7,22.7S81.5,239,69,239s-22.7-10.2-22.7-22.7S56.5,193.7,69,193.7 M69,180.1
		c-20,0-36.2,16.2-36.2,36.2S49,252.6,69,252.6s36.2-16.2,36.2-36.2S89,180.1,69,180.1L69,180.1z"/>
	<path class="st0" d="M148.8,54.6c12.5,0,22.7,10.2,22.7,22.7c0,12.5-10.2,22.7-22.7,22.7c-12.5,0-22.7-10.2-22.7-22.7
		C126.2,64.8,136.3,54.6,148.8,54.6 M148.8,41.1c-20,0-36.2,16.2-36.2,36.2s16.2,36.2,36.2,36.2s36.2-16.2,36.2-36.2
		S168.8,41.1,148.8,41.1L148.8,41.1z"/>
	<circle class="st0" cx="284.9" cy="247.3" r="12.7"/>
	<circle class="st0" cx="148.8" cy="326.3" r="12.7"/>
	<circle class="st0" cx="12.7" cy="247.3" r="12.7"/>
	<circle class="st0" cx="12.8" cy="91.7" r="12.7"/>
	<circle class="st0" cx="148.8" cy="12.7" r="12.7"/>
	<circle class="st0" cx="285" cy="91.7" r="12.7"/>
</g>
</svg>
