<?xml version="1.0" encoding="UTF-8" ?>
<!DOCTYPE svg PUBLIC "-//W3C//DTD SVG 1.1//EN" "http://www.w3.org/Graphics/SVG/1.1/DTD/svg11.dtd">
<svg width="48pt" height="48pt" viewBox="0 0 48 48" version="1.1" xmlns="http://www.w3.org/2000/svg">
<g id="#ffffffff">
<path fill="#ffffff" opacity="1.00" d=" M 23.15 0.00 L 26.77 0.00 C 33.36 1.61 39.21 6.85 39.94 13.86 C 41.46 14.59 43.64 15.16 43.73 17.22 C 44.54 23.00 40.69 30.64 34.04 30.05 C 34.03 29.61 34.00 28.75 33.99 28.32 C 38.10 28.71 40.53 25.07 41.79 21.69 C 40.89 21.72 39.09 21.77 38.19 21.80 C 38.06 16.76 38.78 10.94 35.06 6.92 C 29.70 0.22 18.27 0.23 12.93 6.94 C 9.17 11.01 10.02 16.90 9.76 21.98 C 7.62 21.82 4.58 21.59 4.28 18.86 C 3.55 16.24 5.80 14.48 8.04 13.86 C 8.89 6.39 15.63 0.32 23.14 0.20 C 23.14 0.15 23.14 0.05 23.15 0.00 M 5.63 18.00 C 6.18 19.11 7.00 20.00 8.09 20.65 C 8.14 18.88 8.14 17.11 8.10 15.35 C 7.01 16.00 6.18 16.88 5.63 18.00 M 39.91 15.35 C 39.86 17.12 39.86 18.88 39.90 20.65 C 40.99 20.00 41.81 19.11 42.37 18.00 C 41.82 16.89 40.99 16.00 39.91 15.35 Z" />
<path fill="#ffffff" opacity="1.00" d=" M 20.47 6.67 C 27.08 4.37 34.89 9.21 35.71 16.17 C 37.16 23.51 30.28 30.79 22.88 29.81 C 16.59 29.39 11.51 23.30 12.17 17.04 C 12.51 12.32 15.91 7.99 20.47 6.67 M 21.28 10.42 C 14.90 12.27 14.10 22.02 20.00 24.99 C 25.38 28.54 33.10 23.23 32.03 16.99 C 31.50 12.10 25.91 8.46 21.28 10.42 Z" />
<path fill="#ffffff" opacity="1.00" d=" M 8.93 36.06 C 13.87 31.84 20.90 32.11 27.01 32.22 C 31.43 32.52 36.28 33.16 39.54 36.49 C 42.01 38.91 41.95 42.59 41.82 45.79 C 29.94 45.94 18.06 45.95 6.18 45.79 C 6.01 42.40 6.05 38.39 8.93 36.06 M 12.80 37.87 C 10.17 38.85 10.00 41.77 9.70 44.13 C 19.23 44.11 28.76 44.11 38.29 44.13 C 38.57 40.41 35.96 37.28 32.32 36.71 C 25.93 35.54 18.84 35.12 12.80 37.87 Z" />
</g>
</svg>
